<svg xmlns="http://www.w3.org/2000/svg" viewBox="0 0 1024 1024" fill="none">
  <defs>
    <linearGradient id="g" x1="512" y1="209" x2="512" y2="783" gradientUnits="userSpaceOnUse">
      <stop offset="0%" stop-color="#A5EFE6"/>
      <stop offset="55%" stop-color="#68D1DD"/>
      <stop offset="100%" stop-color="#2FA4D3"/>
    </linearGradient>
  </defs>
  <g fill="url(#g)">
    <path d="M 508 209 L 484 221 L 478 226 L 477 264 L 512 282 L 545 264 L 545 227 L 533 218 L 530 218 L 513 209 Z"/>
    <path d="M 589 209 L 576 213 L 574 216 L 555 226 L 555 245 L 553 246 L 553 264 L 584 282 L 595 278 L 621 263 L 620 226 Z"/>
    <path d="M 432 210 L 402 227 L 403 246 L 401 247 L 401 263 L 431 280 L 438 282 L 468 264 L 468 227 L 453 217 L 450 217 L 437 210 Z"/>
    <path d="M 502 288 L 476 273 L 471 273 L 462 280 L 451 284 L 442 291 L 443 323 L 472 311 L 504 311 Z"/>
    <path d="M 395 274 L 389 279 L 384 280 L 367 290 L 368 330 L 402 347 L 428 333 L 434 328 L 434 292 L 426 286 L 407 278 L 403 274 Z"/>
    <path d="M 519 291 L 520 311 L 552 312 L 579 323 L 580 290 L 554 275 L 546 274 L 542 278 L 529 283 L 524 288 L 521 288 Z"/>
    <path d="M 624 274 L 616 276 L 615 278 L 606 281 L 604 284 L 601 284 L 599 287 L 590 291 L 590 311 L 588 312 L 588 329 L 619 347 L 622 347 L 654 330 L 654 291 L 647 285 L 642 284 Z"/>
    <path d="M 331 275 L 328 275 L 313 283 L 296 295 L 296 331 L 324 347 L 328 347 L 359 330 L 359 291 Z"/>
    <path d="M 690 275 L 685 280 L 681 280 L 679 283 L 667 288 L 664 291 L 662 329 L 697 348 L 726 331 L 726 296 L 725 293 L 701 279 L 697 279 L 694 275 Z"/>
    <path d="M 361 338 L 329 356 L 329 393 L 364 411 L 396 393 L 397 357 L 368 339 Z"/>
    <path d="M 657 338 L 639 347 L 636 351 L 627 356 L 625 379 L 626 393 L 661 411 L 693 393 L 693 357 L 685 351 L 672 346 L 670 343 L 666 343 L 664 340 Z"/>
    <path d="M 291 339 L 286 340 L 256 357 L 255 394 L 287 412 L 320 394 L 320 356 Z"/>
    <path d="M 729 340 L 701 357 L 701 393 L 732 411 L 736 411 L 766 395 L 766 358 L 756 353 L 749 347 L 741 343 L 737 343 L 735 340 Z"/>
    <path d="M 323 402 L 306 411 L 303 415 L 293 419 L 293 457 L 320 473 L 327 475 L 359 457 L 359 419 L 328 402 Z"/>
    <path d="M 694 402 L 668 416 L 666 419 L 663 419 L 663 457 L 698 475 L 730 457 L 730 420 L 702 403 Z"/>
    <path d="M 253 405 L 228 420 L 228 460 L 246 471 L 256 474 L 285 457 L 284 420 L 256 405 Z"/>
    <path d="M 765 405 L 738 420 L 738 458 L 769 474 L 793 460 L 793 419 L 773 407 Z"/>
    <path d="M 288 466 L 258 483 L 258 519 L 291 537 L 321 519 L 321 498 L 319 482 L 291 466 Z"/>
    <path d="M 731 466 L 701 484 L 701 519 L 721 531 L 734 536 L 764 519 L 764 483 L 735 466 Z"/>
    <path d="M 351 474 L 346 474 L 329 483 L 330 518 L 344 525 L 358 517 L 358 481 Z"/>
    <path d="M 672 475 L 665 480 L 665 517 L 673 523 L 679 524 L 692 518 L 693 483 L 678 475 Z"/>
    <path d="M 781 485 L 773 491 L 773 516 L 782 520 L 787 520 L 796 514 L 796 493 Z"/>
    <path d="M 243 486 L 238 486 L 226 494 L 227 515 L 238 521 L 250 516 L 250 490 Z"/>
    <path d="M 326 527 L 294 545 L 294 569 L 296 584 L 326 600 L 329 600 L 360 582 L 360 544 Z"/>
    <path d="M 694 527 L 663 543 L 661 558 L 661 581 L 693 599 L 698 599 L 728 582 L 728 545 L 700 528 Z"/>
    <path d="M 769 528 L 736 545 L 736 582 L 765 598 L 793 583 L 793 543 Z"/>
    <path d="M 253 529 L 229 543 L 229 584 L 258 599 L 286 583 L 286 554 L 284 544 L 257 529 Z"/>
    <path d="M 656 589 L 625 606 L 624 643 L 653 660 L 660 661 L 690 644 L 691 608 L 666 593 Z"/>
    <path d="M 363 590 L 331 609 L 332 645 L 363 662 L 367 662 L 398 644 L 398 607 L 367 590 Z"/>
    <path d="M 734 591 L 730 591 L 700 607 L 699 644 L 727 660 L 735 659 L 761 644 L 761 607 Z"/>
    <path d="M 289 592 L 262 607 L 260 610 L 261 645 L 291 661 L 295 661 L 323 645 L 323 613 L 322 608 L 293 592 Z"/>
    <path d="M 618 651 L 587 667 L 587 704 L 620 722 L 651 706 L 652 669 Z"/>
    <path d="M 401 652 L 370 670 L 370 703 L 375 709 L 398 721 L 405 722 L 435 705 L 435 669 L 423 661 L 405 652 Z"/>
    <path d="M 327 653 L 299 670 L 300 706 L 330 722 L 333 722 L 362 706 L 361 670 Z"/>
    <path d="M 696 653 L 693 653 L 661 670 L 660 706 L 689 722 L 693 722 L 707 715 L 724 704 L 724 670 Z"/>
    <path d="M 509 668 L 477 685 L 477 723 L 512 741 L 545 723 L 545 685 L 532 678 L 529 678 L 528 676 L 525 676 L 519 671 L 515 671 L 513 668 Z"/>
    <path d="M 578 673 L 553 683 L 553 708 L 561 711 L 578 703 Z"/>
    <path d="M 444 675 L 444 703 L 460 710 L 467 708 L 468 684 L 448 675 Z"/>
    <path d="M 439 712 L 408 730 L 409 765 L 440 782 L 444 782 L 473 766 L 474 729 L 450 715 Z"/>
    <path d="M 579 712 L 549 728 L 549 765 L 578 781 L 583 781 L 613 765 L 613 730 L 586 713 Z"/>
    <path d="M 647 719 L 623 730 L 623 752 L 638 760 L 659 750 L 660 728 Z"/>
    <path d="M 373 720 L 362 727 L 363 750 L 382 760 L 385 760 L 399 752 L 399 731 L 378 720 Z"/>
    <path d="M 482 744 L 484 777 L 504 787 L 513 789 L 540 776 L 539 743 L 531 741 L 512 750 L 490 740 L 487 740 Z"/>
  </g>
</svg>
