<svg width="512" height="512" viewBox="0 0 512 512" fill="none" xmlns="http://www.w3.org/2000/svg">
  <defs>
    <linearGradient id="ozlaxGradient" x1="140" y1="72" x2="363" y2="430" gradientUnits="userSpaceOnUse">
      <stop stop-color="#C8FFF4"/>
      <stop offset="0.28" stop-color="#8FE4ED"/>
      <stop offset="0.68" stop-color="#52B9DC"/>
      <stop offset="1" stop-color="#2693CD"/>
    </linearGradient>
    <symbol id="hex" viewBox="0 0 44 38">
      <path d="M22 1.4 41 12.3v13.4L22 36.6 3 25.7V12.3L22 1.4Z" fill="url(#ozlaxGradient)"/>
    </symbol>
  </defs>
  <g transform="translate(256 256)">
    <use href="#hex" x="-22" y="-190"/>
    <use href="#hex" x="24" y="-190"/>
    <use href="#hex" x="70" y="-190"/>
    <use href="#hex" x="-68" y="-152"/>
    <use href="#hex" x="-22" y="-152"/>
    <use href="#hex" x="24" y="-152"/>
    <use href="#hex" x="70" y="-152"/>
    <use href="#hex" x="116" y="-152"/>
    <use href="#hex" x="-114" y="-114"/>
    <use href="#hex" x="-68" y="-114"/>
    <use href="#hex" x="116" y="-114"/>
    <use href="#hex" x="162" y="-114"/>
    <use href="#hex" x="-160" y="-76"/>
    <use href="#hex" x="-114" y="-76"/>
    <use href="#hex" x="162" y="-76"/>
    <use href="#hex" x="208" y="-76"/>
    <use href="#hex" x="-160" y="-30"/>
    <use href="#hex" x="-114" y="-30"/>
    <use href="#hex" x="162" y="-30"/>
    <use href="#hex" x="208" y="-30"/>
    <use href="#hex" x="-160" y="16"/>
    <use href="#hex" x="-114" y="16"/>
    <use href="#hex" x="162" y="16"/>
    <use href="#hex" x="208" y="16"/>
    <use href="#hex" x="-160" y="62"/>
    <use href="#hex" x="-114" y="62"/>
    <use href="#hex" x="162" y="62"/>
    <use href="#hex" x="208" y="62"/>
    <use href="#hex" x="-114" y="108"/>
    <use href="#hex" x="-68" y="108"/>
    <use href="#hex" x="116" y="108"/>
    <use href="#hex" x="162" y="108"/>
    <use href="#hex" x="-68" y="146"/>
    <use href="#hex" x="-22" y="146"/>
    <use href="#hex" x="24" y="146"/>
    <use href="#hex" x="70" y="146"/>
    <use href="#hex" x="-22" y="184"/>
    <use href="#hex" x="24" y="184"/>
    <use href="#hex" x="70" y="184"/>
    <use href="#hex" x="-188" y="20" transform="scale(.72)"/>
    <use href="#hex" x="302" y="20" transform="scale(.72)"/>
    <use href="#hex" x="-86" y="238" transform="scale(.72)"/>
    <use href="#hex" x="190" y="238" transform="scale(.72)"/>
    <use href="#hex" x="-8" y="128"/>
  </g>
</svg>
